<svg width="262" height="48" viewBox="0 0 262 48" fill="none" xmlns="http://www.w3.org/2000/svg">
<path d="M8.80682 39L0.852273 9.90909H4.43182L10.5114 33.6023H10.7955L16.9886 9.90909H20.9659L27.1591 33.6023H27.4432L33.5227 9.90909H37.1023L29.1477 39H25.5114L19.0909 15.8182H18.8636L12.4432 39H8.80682Z" fill="white"/>
<path d="M67.5227 39V9.90909H85.0795V13.0341H71.0455V22.8636H84.1705V25.9886H71.0455V35.875H85.3068V39H67.5227Z" fill="white"/>
<path d="M121.523 39V9.90909H131.693C133.72 9.90909 135.391 10.2595 136.707 10.9602C138.024 11.6515 139.004 12.5843 139.648 13.7585C140.292 14.9233 140.614 16.2159 140.614 17.6364C140.614 18.8864 140.391 19.9186 139.946 20.733C139.51 21.5473 138.933 22.1913 138.213 22.6648C137.503 23.1383 136.731 23.4886 135.898 23.7159V24C136.788 24.0568 137.683 24.3693 138.582 24.9375C139.482 25.5057 140.235 26.3201 140.841 27.3807C141.447 28.4413 141.75 29.7386 141.75 31.2727C141.75 32.7311 141.419 34.0426 140.756 35.2074C140.093 36.3722 139.046 37.2955 137.616 37.9773C136.187 38.6591 134.326 39 132.034 39H121.523ZM125.045 35.875H132.034C134.335 35.875 135.969 35.4299 136.935 34.5398C137.91 33.6402 138.398 32.5511 138.398 31.2727C138.398 30.2879 138.147 29.3788 137.645 28.5455C137.143 27.7027 136.428 27.0303 135.5 26.5284C134.572 26.017 133.473 25.7614 132.205 25.7614H125.045V35.875ZM125.045 22.6932H131.58C132.64 22.6932 133.597 22.4848 134.449 22.0682C135.311 21.6515 135.992 21.0644 136.494 20.3068C137.006 19.5492 137.261 18.6591 137.261 17.6364C137.261 16.358 136.816 15.2737 135.926 14.3835C135.036 13.4839 133.625 13.0341 131.693 13.0341H125.045V22.6932Z" fill="white"/>
<path d="M178.92 9.24V15.72H181.68V11.76H200.92V15.72H203.8V9.24H178.92ZM189.64 5.44V11.16H192.68V5.44H189.64ZM189.72 16.8V33.12H192.6V16.8H189.72ZM193.56 36.56C196.44 38.2 200.12 40.72 201.92 42.28L204.28 40.48C202.36 38.92 198.64 36.56 195.8 34.96L193.56 36.56ZM186.04 35.24C183.84 37.12 180.2 39 176.96 40.16C177.6 40.64 178.72 41.76 179.2 42.36C182.44 40.92 186.36 38.56 188.88 36.28L186.04 35.24ZM183.48 28.8H199.12V32.24H183.48V28.8ZM183.48 23.2H199.12V26.56H183.48V23.2ZM180.76 20.84V34.56H201.92V20.84H180.76ZM181.96 15.36V17.88H200.76V15.36H181.96ZM169.48 7.92C172 9.08 175.04 10.96 176.52 12.44L178.28 9.92C176.76 8.56 173.68 6.8 171.16 5.72L169.48 7.92ZM167.48 18.76C170.04 19.84 173.08 21.6 174.6 22.92L176.32 20.44C174.76 19.16 171.64 17.44 169.16 16.52L167.48 18.76ZM168.6 39.84L171.24 41.68C173.36 37.96 175.92 32.88 177.8 28.6L175.44 26.84C173.36 31.44 170.56 36.72 168.6 39.84Z" fill="white"/>
<path d="M229.4 25.68V42.32H232.36V28.08H251.88V42.32H254.96V25.68H229.4ZM230.96 31.92V34.32H252.84V31.92H230.96ZM231.08 38.36V40.76H252.84V38.36H231.08ZM240.36 21.92C239.96 23.24 239.08 25.28 238.32 26.64L240.76 27.28C241.6 26.08 242.64 24.28 243.52 22.52L240.36 21.92ZM224.88 7.48V9.88H238.2V7.48H224.88ZM237.4 7.48V20.72C237.4 21.12 237.28 21.28 236.76 21.28C236.28 21.32 234.68 21.32 232.84 21.28C233.2 21.92 233.56 22.84 233.68 23.52C236.24 23.52 237.84 23.52 238.88 23.12C239.84 22.72 240.16 22.04 240.16 20.72V7.48H237.4ZM242.68 7.48V9.88H256.64V7.48H242.68ZM255.28 7.48V20.72C255.28 21.2 255.12 21.28 254.6 21.32C254.08 21.36 252.32 21.36 250.44 21.28C250.8 21.96 251.16 22.96 251.28 23.64C253.96 23.68 255.68 23.64 256.72 23.24C257.8 22.8 258.08 22.12 258.08 20.72V7.48H255.28ZM241.76 19.28L242.88 21.6C245.96 20.52 249.88 19 253.56 17.6L253.12 15.4C248.92 16.88 244.68 18.36 241.76 19.28ZM243.8 12.08C245.72 13.08 248.04 14.68 249.12 15.92L250.76 13.92C249.64 12.72 247.28 11.2 245.36 10.28L243.8 12.08ZM223.92 20.08L225.08 22.56C228 21.4 231.64 19.88 235.16 18.44L234.68 16.2C230.68 17.68 226.68 19.2 223.92 20.08ZM226.56 12.04C228.48 13.12 230.72 14.8 231.8 16L233.44 14.04C232.36 12.84 230.04 11.28 228.16 10.28L226.56 12.04Z" fill="white"/>
</svg>
