<svg width="309" height="49" viewBox="0 0 309 49" fill="none" xmlns="http://www.w3.org/2000/svg">
<path d="M28.0682 24.4545C28.0682 27.5227 27.5142 30.1742 26.4062 32.4091C25.2983 34.6439 23.7784 36.3674 21.8466 37.5795C19.9148 38.7917 17.7083 39.3977 15.2273 39.3977C12.7462 39.3977 10.5398 38.7917 8.60795 37.5795C6.67614 36.3674 5.15625 34.6439 4.0483 32.4091C2.94034 30.1742 2.38636 27.5227 2.38636 24.4545C2.38636 21.3864 2.94034 18.7348 4.0483 16.5C5.15625 14.2652 6.67614 12.5417 8.60795 11.3295C10.5398 10.1174 12.7462 9.51136 15.2273 9.51136C17.7083 9.51136 19.9148 10.1174 21.8466 11.3295C23.7784 12.5417 25.2983 14.2652 26.4062 16.5C27.5142 18.7348 28.0682 21.3864 28.0682 24.4545ZM24.6591 24.4545C24.6591 21.9356 24.2377 19.8097 23.3949 18.0767C22.5616 16.3438 21.4299 15.0322 20 14.142C18.5795 13.2519 16.9886 12.8068 15.2273 12.8068C13.4659 12.8068 11.8703 13.2519 10.4403 14.142C9.01989 15.0322 7.88826 16.3438 7.04545 18.0767C6.21212 19.8097 5.79545 21.9356 5.79545 24.4545C5.79545 26.9735 6.21212 29.0994 7.04545 30.8324C7.88826 32.5653 9.01989 33.8769 10.4403 34.767C11.8703 35.6572 13.4659 36.1023 15.2273 36.1023C16.9886 36.1023 18.5795 35.6572 20 34.767C21.4299 33.8769 22.5616 32.5653 23.3949 30.8324C24.2377 29.0994 24.6591 26.9735 24.6591 24.4545Z" fill="white"/>
<path d="M60.9318 14.0341V10.9091H82.75V14.0341H73.6023V40H70.0795V14.0341H60.9318Z" fill="white"/>
<path d="M117.523 39V9.90909H121.045V22.8636H136.557V9.90909H140.08V39H136.557V25.9886H121.045V39H117.523Z" fill="white"/>
<path d="M174.523 39V9.90909H192.08V13.0341H178.045V22.8636H191.17V25.9886H178.045V35.875H192.307V39H174.523Z" fill="white"/>
<path d="M229.523 39V9.90909H239.352C241.625 9.90909 243.491 10.2973 244.949 11.0739C246.407 11.8409 247.487 12.8968 248.188 14.2415C248.888 15.5862 249.239 17.1155 249.239 18.8295C249.239 20.5436 248.888 22.0634 248.188 23.3892C247.487 24.715 246.412 25.7566 244.963 26.5142C243.514 27.2623 241.663 27.6364 239.409 27.6364H231.455V24.4545H239.295C240.848 24.4545 242.098 24.2273 243.045 23.7727C244.002 23.3182 244.693 22.6742 245.119 21.8409C245.555 20.9981 245.773 19.9943 245.773 18.8295C245.773 17.6648 245.555 16.6468 245.119 15.7756C244.684 14.9044 243.988 14.232 243.031 13.7585C242.075 13.2756 240.811 13.0341 239.239 13.0341H233.045V39H229.523ZM243.216 25.9318L250.375 39H246.284L239.239 25.9318H243.216Z" fill="white"/>
<path d="M302.432 17.1818C302.261 15.7424 301.57 14.625 300.358 13.8295C299.146 13.0341 297.659 12.6364 295.898 12.6364C294.61 12.6364 293.483 12.8447 292.517 13.2614C291.561 13.678 290.813 14.2509 290.273 14.9801C289.742 15.7093 289.477 16.5379 289.477 17.4659C289.477 18.2424 289.662 18.91 290.031 19.4688C290.41 20.018 290.893 20.4773 291.48 20.8466C292.067 21.2064 292.683 21.5047 293.327 21.7415C293.971 21.9687 294.562 22.1534 295.102 22.2955L298.057 23.0909C298.814 23.2898 299.657 23.5644 300.585 23.9148C301.523 24.2652 302.418 24.7434 303.27 25.3494C304.132 25.946 304.842 26.7131 305.401 27.6506C305.959 28.5881 306.239 29.7386 306.239 31.1023C306.239 32.6742 305.827 34.0947 305.003 35.3636C304.188 36.6326 302.995 37.6411 301.423 38.3892C299.861 39.1373 297.962 39.5114 295.727 39.5114C293.644 39.5114 291.84 39.1752 290.315 38.5028C288.8 37.8305 287.607 36.893 286.736 35.6903C285.874 34.4877 285.386 33.0909 285.273 31.5H288.909C289.004 32.5985 289.373 33.5076 290.017 34.2273C290.67 34.9375 291.494 35.4678 292.489 35.8182C293.492 36.1591 294.572 36.3295 295.727 36.3295C297.072 36.3295 298.279 36.1117 299.349 35.6761C300.42 35.2311 301.267 34.6155 301.892 33.8295C302.517 33.0341 302.83 32.1061 302.83 31.0455C302.83 30.0795 302.56 29.2936 302.02 28.6875C301.48 28.0814 300.77 27.589 299.889 27.2102C299.009 26.8314 298.057 26.5 297.034 26.2159L293.455 25.1932C291.182 24.5398 289.383 23.607 288.057 22.3949C286.731 21.1828 286.068 19.5966 286.068 17.6364C286.068 16.0076 286.509 14.5871 287.389 13.375C288.279 12.1534 289.473 11.2064 290.969 10.5341C292.474 9.85227 294.155 9.51136 296.011 9.51136C297.886 9.51136 299.553 9.84754 301.011 10.5199C302.47 11.1828 303.625 12.0919 304.477 13.2472C305.339 14.4025 305.794 15.714 305.841 17.1818H302.432Z" fill="white"/>
</svg>
