<svg width="583" height="49" viewBox="0 0 583 49" fill="none" xmlns="http://www.w3.org/2000/svg">
<path d="M7.04545 10.9091V40H3.52273V10.9091H7.04545Z" fill="white"/>
<path d="M72.5909 9.90909V39H69.1818L53.3295 16.1591H53.0455V39H49.5227V9.90909H52.9318L68.8409 32.8068H69.125V9.90909H72.5909Z" fill="white"/>
<path d="M105.932 13.0341V9.90909H127.75V13.0341H118.602V39H115.08V13.0341H105.932Z" fill="white"/>
<path d="M164.523 39V9.90909H182.08V13.0341H168.045V22.8636H181.17V25.9886H168.045V35.875H182.307V39H164.523Z" fill="white"/>
<path d="M219.523 39V9.90909H229.352C231.625 9.90909 233.491 10.2973 234.949 11.0739C236.407 11.8409 237.487 12.8968 238.188 14.2415C238.888 15.5862 239.239 17.1155 239.239 18.8295C239.239 20.5436 238.888 22.0634 238.188 23.3892C237.487 24.715 236.412 25.7566 234.963 26.5142C233.514 27.2623 231.663 27.6364 229.409 27.6364H221.455V24.4545H229.295C230.848 24.4545 232.098 24.2273 233.045 23.7727C234.002 23.3182 234.693 22.6742 235.119 21.8409C235.555 20.9981 235.773 19.9943 235.773 18.8295C235.773 17.6648 235.555 16.6468 235.119 15.7756C234.684 14.9044 233.988 14.232 233.031 13.7585C232.075 13.2756 230.811 13.0341 229.239 13.0341H223.045V39H219.523ZM233.216 25.9318L240.375 39H236.284L229.239 25.9318H233.216Z" fill="white"/>
<path d="M277.716 39H274.023L284.705 9.90909H288.341L299.023 39H295.33L286.636 14.5114H286.409L277.716 39ZM279.08 27.6364H293.966V30.7614H279.08V27.6364Z" fill="white"/>
<path d="M354.932 19H351.409C351.201 17.9867 350.836 17.0966 350.315 16.3295C349.804 15.5625 349.179 14.9186 348.44 14.3977C347.711 13.8674 346.902 13.4697 346.011 13.2045C345.121 12.9394 344.193 12.8068 343.227 12.8068C341.466 12.8068 339.87 13.2519 338.44 14.142C337.02 15.0322 335.888 16.3438 335.045 18.0767C334.212 19.8097 333.795 21.9356 333.795 24.4545C333.795 26.9735 334.212 29.0994 335.045 30.8324C335.888 32.5653 337.02 33.8769 338.44 34.767C339.87 35.6572 341.466 36.1023 343.227 36.1023C344.193 36.1023 345.121 35.9697 346.011 35.7045C346.902 35.4394 347.711 35.0464 348.44 34.5256C349.179 33.9953 349.804 33.3466 350.315 32.5795C350.836 31.803 351.201 30.9129 351.409 29.9091H354.932C354.667 31.3958 354.184 32.7263 353.483 33.9006C352.782 35.0748 351.911 36.0739 350.869 36.8977C349.828 37.7121 348.658 38.3324 347.361 38.7585C346.073 39.1847 344.695 39.3977 343.227 39.3977C340.746 39.3977 338.54 38.7917 336.608 37.5795C334.676 36.3674 333.156 34.6439 332.048 32.4091C330.94 30.1742 330.386 27.5227 330.386 24.4545C330.386 21.3864 330.94 18.7348 332.048 16.5C333.156 14.2652 334.676 12.5417 336.608 11.3295C338.54 10.1174 340.746 9.51136 343.227 9.51136C344.695 9.51136 346.073 9.72443 347.361 10.1506C348.658 10.5767 349.828 11.2017 350.869 12.0256C351.911 12.84 352.782 13.8343 353.483 15.0085C354.184 16.1733 354.667 17.5038 354.932 19Z" fill="white"/>
<path d="M388.932 13.0341V9.90909H410.75V13.0341H401.602V39H398.08V13.0341H388.932Z" fill="white"/>
<path d="M457.045 9.90909V39H453.523V9.90909H457.045Z" fill="white"/>
<path d="M523.068 24.4545C523.068 27.5227 522.514 30.1742 521.406 32.4091C520.298 34.6439 518.778 36.3674 516.847 37.5795C514.915 38.7917 512.708 39.3977 510.227 39.3977C507.746 39.3977 505.54 38.7917 503.608 37.5795C501.676 36.3674 500.156 34.6439 499.048 32.4091C497.94 30.1742 497.386 27.5227 497.386 24.4545C497.386 21.3864 497.94 18.7348 499.048 16.5C500.156 14.2652 501.676 12.5417 503.608 11.3295C505.54 10.1174 507.746 9.51136 510.227 9.51136C512.708 9.51136 514.915 10.1174 516.847 11.3295C518.778 12.5417 520.298 14.2652 521.406 16.5C522.514 18.7348 523.068 21.3864 523.068 24.4545ZM519.659 24.4545C519.659 21.9356 519.238 19.8097 518.395 18.0767C517.562 16.3438 516.43 15.0322 515 14.142C513.58 13.2519 511.989 12.8068 510.227 12.8068C508.466 12.8068 506.87 13.2519 505.44 14.142C504.02 15.0322 502.888 16.3438 502.045 18.0767C501.212 19.8097 500.795 21.9356 500.795 24.4545C500.795 26.9735 501.212 29.0994 502.045 30.8324C502.888 32.5653 504.02 33.8769 505.44 34.767C506.87 35.6572 508.466 36.1023 510.227 36.1023C511.989 36.1023 513.58 35.6572 515 34.767C516.43 33.8769 517.562 32.5653 518.395 30.8324C519.238 29.0994 519.659 26.9735 519.659 24.4545Z" fill="white"/>
<path d="M578.591 9.90909V39H575.182L559.33 16.1591H559.045V39H555.523V9.90909H558.932L574.841 32.8068H575.125V9.90909H578.591Z" fill="white"/>
</svg>
