<svg width="418" height="48" viewBox="0 0 418 48" fill="none" xmlns="http://www.w3.org/2000/svg">
<path d="M114.523 39V9.90909H124.352C126.634 9.90909 128.5 10.321 129.949 11.1449C131.407 11.9593 132.487 13.0625 133.188 14.4545C133.888 15.8466 134.239 17.3996 134.239 19.1136C134.239 20.8277 133.888 22.3854 133.188 23.7869C132.496 25.1884 131.426 26.3059 129.977 27.1392C128.528 27.9631 126.672 28.375 124.409 28.375H117.364V25.25H124.295C125.858 25.25 127.113 24.9801 128.06 24.4403C129.007 23.9006 129.693 23.1714 130.119 22.2528C130.555 21.3248 130.773 20.2784 130.773 19.1136C130.773 17.9489 130.555 16.9072 130.119 15.9886C129.693 15.0701 129.002 14.3504 128.045 13.8295C127.089 13.2992 125.82 13.0341 124.239 13.0341H118.045V39H114.523Z" fill="white"/>
<path d="M227.523 39V9.90909H237.352C239.634 9.90909 241.5 10.321 242.949 11.1449C244.407 11.9593 245.487 13.0625 246.188 14.4545C246.888 15.8466 247.239 17.3996 247.239 19.1136C247.239 20.8277 246.888 22.3854 246.188 23.7869C245.496 25.1884 244.426 26.3059 242.977 27.1392C241.528 27.9631 239.672 28.375 237.409 28.375H230.364V25.25H237.295C238.858 25.25 240.113 24.9801 241.06 24.4403C242.007 23.9006 242.693 23.1714 243.119 22.2528C243.555 21.3248 243.773 20.2784 243.773 19.1136C243.773 17.9489 243.555 16.9072 243.119 15.9886C242.693 15.0701 242.002 14.3504 241.045 13.8295C240.089 13.2992 238.82 13.0341 237.239 13.0341H231.045V39H227.523Z" fill="white"/>
<path d="M285.716 39H282.023L292.705 9.90909H296.341L307.023 39H303.33L294.636 14.5114H294.409L285.716 39ZM287.08 27.6364H301.966V30.7614H287.08V27.6364Z" fill="white"/>
<path d="M358.409 19C358.097 18.0436 357.685 17.1866 357.173 16.429C356.671 15.6619 356.07 15.0085 355.369 14.4688C354.678 13.929 353.892 13.517 353.011 13.233C352.131 12.9489 351.165 12.8068 350.114 12.8068C348.39 12.8068 346.823 13.2519 345.412 14.142C344.001 15.0322 342.879 16.3438 342.045 18.0767C341.212 19.8097 340.795 21.9356 340.795 24.4545C340.795 26.9735 341.217 29.0994 342.06 30.8324C342.902 32.5653 344.044 33.8769 345.483 34.767C346.922 35.6572 348.542 36.1023 350.341 36.1023C352.008 36.1023 353.475 35.7472 354.744 35.0369C356.023 34.3172 357.017 33.304 357.727 31.9972C358.447 30.6809 358.807 29.1326 358.807 27.3523L359.886 27.5795H351.136V24.4545H362.216V27.5795C362.216 29.9754 361.705 32.0587 360.682 33.8295C359.669 35.6004 358.267 36.9735 356.477 37.9489C354.697 38.9148 352.652 39.3977 350.341 39.3977C347.765 39.3977 345.502 38.7917 343.551 37.5795C341.61 36.3674 340.095 34.6439 339.006 32.4091C337.926 30.1742 337.386 27.5227 337.386 24.4545C337.386 22.1534 337.694 20.0843 338.31 18.2472C338.935 16.4006 339.815 14.8286 340.952 13.5312C342.088 12.2339 343.433 11.2396 344.986 10.5483C346.539 9.85701 348.248 9.51136 350.114 9.51136C351.648 9.51136 353.078 9.74337 354.403 10.2074C355.739 10.6619 356.927 11.3106 357.969 12.1534C359.02 12.9867 359.896 13.9858 360.597 15.1506C361.297 16.3059 361.78 17.589 362.045 19H358.409Z" fill="white"/>
<path d="M397.523 39V9.90909H415.08V13.0341H401.045V22.8636H414.17V25.9886H401.045V35.875H415.307V39H397.523Z" fill="white"/>
<path d="M81.0682 24.4545C81.0682 27.5227 80.5142 30.1742 79.4062 32.4091C78.2983 34.6439 76.7784 36.3674 74.8466 37.5795C72.9148 38.7917 70.7083 39.3977 68.2273 39.3977C65.7462 39.3977 63.5398 38.7917 61.608 37.5795C59.6761 36.3674 58.1563 34.6439 57.0483 32.4091C55.9403 30.1742 55.3864 27.5227 55.3864 24.4545C55.3864 21.3864 55.9403 18.7348 57.0483 16.5C58.1563 14.2652 59.6761 12.5417 61.608 11.3295C63.5398 10.1174 65.7462 9.51136 68.2273 9.51136C70.7083 9.51136 72.9148 10.1174 74.8466 11.3295C76.7784 12.5417 78.2983 14.2652 79.4062 16.5C80.5142 18.7348 81.0682 21.3864 81.0682 24.4545ZM77.6591 24.4545C77.6591 21.9356 77.2377 19.8097 76.3949 18.0767C75.5616 16.3438 74.4299 15.0322 73 14.142C71.5795 13.2519 69.9886 12.8068 68.2273 12.8068C66.4659 12.8068 64.8703 13.2519 63.4403 14.142C62.0199 15.0322 60.8883 16.3438 60.0455 18.0767C59.2121 19.8097 58.7955 21.9356 58.7955 24.4545C58.7955 26.9735 59.2121 29.0994 60.0455 30.8324C60.8883 32.5653 62.0199 33.8769 63.4403 34.767C64.8703 35.6572 66.4659 36.1023 68.2273 36.1023C69.9886 36.1023 71.5795 35.6572 73 34.767C74.4299 33.8769 75.5616 32.5653 76.3949 30.8324C77.2377 29.0994 77.6591 26.9735 77.6591 24.4545Z" fill="white"/>
<path d="M1.93182 13.0341V9.90909H23.75V13.0341H14.6023V39H11.0795V13.0341H1.93182Z" fill="white"/>
</svg>
