<svg width="675" height="226" viewBox="0 0 675 226" fill="none" xmlns="http://www.w3.org/2000/svg">
<line x1="2" y1="57" x2="675" y2="57" stroke="white" stroke-width="2"/>
<line x1="2" y1="1" x2="675" y2="1" stroke="white" stroke-width="2"/>
<line x1="2" y1="169" x2="675" y2="169" stroke="white" stroke-width="2"/>
<line x1="2" y1="225" x2="675" y2="225" stroke="white" stroke-width="2"/>
<line x1="2" y1="113" x2="675" y2="113" stroke="white" stroke-width="2"/>
<line x1="1" y1="226" x2="1" stroke="white" stroke-width="2"/>
<line x1="57" y1="226" x2="57" stroke="white" stroke-width="2"/>
<line x1="113" y1="226" x2="113" stroke="white" stroke-width="2"/>
<line x1="169" y1="226" x2="169" stroke="white" stroke-width="2"/>
<line x1="225" y1="226" x2="225" stroke="white" stroke-width="2"/>
<line x1="281" y1="226" x2="281" stroke="white" stroke-width="2"/>
<line x1="337" y1="226" x2="337" stroke="white" stroke-width="2"/>
<line x1="395" y1="226" x2="395" stroke="white" stroke-width="2"/>
<line x1="450" y1="226" x2="450" stroke="white" stroke-width="2"/>
<line x1="506" y1="226" x2="506" stroke="white" stroke-width="2"/>
<line x1="562" y1="226" x2="562" stroke="white" stroke-width="2"/>
<line x1="618" y1="226" x2="618" stroke="white" stroke-width="2"/>
<line x1="674" y1="226" x2="674" y2="2" stroke="white" stroke-width="2"/>
</svg>
